   <svg
          width="60"
          height="60"
          fill="none"
          xmlns="http://www.w3.org/2000/svg"
        >
          <path
            d="M34 45v13a2 2 0 0 1-2 2H2a2 2 0 0 1-2-2V45a4 4 0 0 1 2.82-3.82L13 38h8l10.18 3.13A4 4 0 0 1 34 45Z"
            fill="#50D9D7"
          />
          <path d="M18 45h-2v15h2V45Z" fill="#00BEBD" />
          <path
            d="M17 45a5 5 0 0 1-5-5v-3h10v3a5 5 0 0 1-5 5Z"
            fill="#EA9807"
          />
          <path
            d="m17 45-6 3-.91-9.11 2.09-.64L17 45ZM23.91 38.89 23 48l-6-3 4.82-6.75 2.09.64Z"
            fill="#93E6E5"
          />
          <path d="M8 22H6v6h2v-6Z" fill="#00AAA8" />
          <path
            d="M6 26h3v8H6a1 1 0 0 1-1-1v-6a1 1 0 0 1 1-1Z"
            fill="#50D9D7"
          />
          <path
            d="M24 24H7a3 3 0 0 1-3-3v-6h18a3 3 0 0 1 3 3 3 3 0 0 1 3 3v7h-2v-2a2 2 0 0 0-2-2Z"
            fill="#00BEBD"
          />
          <path
            d="M28 34h-3v-8h3a1 1 0 0 1 1 1v6a1 1 0 0 1-1 1Z"
            fill="#50D9D7"
          />
          <path
            d="M17 40a9 9 0 0 1-9-9v-7h16a2 2 0 0 1 2 2v5a9 9 0 0 1-9 9Z"
            fill="#FFAC00"
          />
          <path
            d="M14.55 36.89a1 1 0 0 1 .9-1.78 3.52 3.52 0 0 0 3.1 0 1 1 0 1 1 .9 1.78 5.491 5.491 0 0 1-4.9 0Z"
            fill="#EA9807"
          />
          <path
            d="M28 37h-4a1 1 0 0 1 0-2h3v-2a1 1 0 0 1 2 0v3a1 1 0 0 1-1 1Z"
            fill="#F3F3F3"
          />
          <path
            d="M61 10v16a2 2 0 0 1-2 2H41a2 2 0 0 0-1.6.8l-1.6 2.13a.999.999 0 0 1-1.6 0l-1.6-2.13A2 2 0 0 0 33 28a2 2 0 0 1-2-2V10a2 2 0 0 1 2-2h26a2 2 0 0 1 2 2Z"
            fill="#FFAC00"
          />
          <path
            d="M40 12h-6v2h6v-2ZM58 12H43v2h15v-2ZM52 19h6v-2h-6v2ZM34 19h15v-2H34v2ZM40 22h-6v2h6v-2ZM58 22H43v2h15v-2Z"
            fill="#fff"
          />
          <path d="M29 53h-7v2h7v-2Z" fill="#00BEBD" />
          <path d="M28 51h-2v2h2v-2Z" fill="#93E6E5" />
          <path
            d="M61 10v5.06A9 9 0 0 1 51.36 14H58v-2h-8.47a8.84 8.84 0 0 1-1.47-4H59a2 2 0 0 1 2 2Z"
            fill="#EA9807"
          />
          <path
            d="M58 12v2h-6.64a8.502 8.502 0 0 1-1.83-2H58Z"
            fill="#F3F3F3"
          />
          <path d="M57 14a7 7 0 1 0 0-14 7 7 0 0 0 0 14Z" fill="#fff" />
          <path d="M57 12a5 5 0 1 0 0-10 5 5 0 0 0 0 10Z" fill="#50D9D7" />
          <path
            d="M60.66 10.41a5 5 0 0 1-7.32 0 4 4 0 0 1 7.32 0Z"
            fill="#00BEBD"
          />
          <path d="M57 8a2 2 0 1 0 0-4 2 2 0 0 0 0 4Z" fill="#00BEBD" />
        </svg>