<svg width="53" height="65" fill="none" xmlns="http://www.w3.org/2000/svg"><path d="M51.12 43.129a3 3 0 0 0-2.29-5.12H33v-8h-9.53a4 4 0 0 0-3.58 2.21l-.78 1.58a4 4 0 0 1-3.58 2.21H13v26h30.83a3.13 3.13 0 0 0 3.17-2.84 3.003 3.003 0 0 0-1.814-2.918A3 3 0 0 0 44 56.01h2a3 3 0 0 0 0-6h2a3 3 0 0 0 0-6c1.19 0 2.14.1 3.12-.88Z" fill="#FFAC00"/><path d="M11 32.009H2a2 2 0 0 0-2 2v28a2 2 0 0 0 2 2h9a2 2 0 0 0 2-2v-28a2 2 0 0 0-2-2Z" fill="#00BEBD"/><path d="M21.54 8.849a10.14 10.14 0 0 0-4 5l-.56 1.51a1 1 0 0 1-1.88 0l-.56-1.51a10.14 10.14 0 0 0-4-5 1 1 0 0 1 0-1.68 10.14 10.14 0 0 0 4-5l.52-1.51a1 1 0 0 1 1.88 0l.56 1.51a10.14 10.14 0 0 0 4 5 1 1 0 0 1 .04 1.68Z" fill="#FFAC00"/><path d="M45 1.479v9.29a2 2 0 0 1-1.11 1.79l-4 2a2 2 0 0 1-1.78 0l-4-2a2 2 0 0 1-1.11-1.79v-9.29a13 13 0 0 0-.9 22.53 2 2 0 0 1 .9 1.66v12.34h12v-12.33a2 2 0 0 1 .9-1.67 13 13 0 0 0-.9-22.53Z" fill="#00BEBD"/><path d="M31 30.009v6h-3a1 1 0 1 0 0 2h5v-8h-2Z" fill="#EA9706"/><path d="M9 62.009a2 2 0 1 0 0-4 2 2 0 0 0 0 4Z" fill="#fff"/><path d="M45 36.009H33v2h12v-2Z" fill="#00AAA8"/><path d="M41 36.009h-4v-6a2 2 0 1 1 4 0v6Z" fill="#50D9D7"/><path d="M41 36.009h-4v2h4v-2Z" fill="#00BEBD"/><path d="M52 41.009a3 3 0 0 1-3 3H37a1 1 0 0 1 0-2h14a1 1 0 0 0 1-1ZM51 47.009a3 3 0 0 1-3 3H38a1 1 0 0 1 0-2h12a1 1 0 0 0 1-1ZM49 53.009a3 3 0 0 1-3 3h-8a1 1 0 0 1 0-2h10a1 1 0 0 0 1-1Z" fill="#EA9706"/></svg>