<svg width="64" height="64" fill="none" xmlns="http://www.w3.org/2000/svg"><path d="M64 36v-8a2 2 0 0 0-2-2h-2.13A2 2 0 0 1 58 24.58a26.866 26.866 0 0 0-2.36-5.69 2 2 0 0 1 .36-2.35L57.46 15a1.998 1.998 0 0 0 0-2.83L51.8 6.54a2 2 0 0 0-2.83 0l-1.51 1.51a2 2 0 0 1-2.35.35A26.869 26.869 0 0 0 39.42 6 2 2 0 0 1 38 4.13V2a2 2 0 0 0-2-2h-8a2 2 0 0 0-2 2v2.13A2 2 0 0 1 24.58 6a26.869 26.869 0 0 0-5.69 2.4 2 2 0 0 1-2.35-.35L15 6.54a2 2 0 0 0-2.83 0L6.54 12.2a2 2 0 0 0 0 2.83l1.51 1.51a2 2 0 0 1 .35 2.35A26.869 26.869 0 0 0 6 24.58 2 2 0 0 1 4.13 26H2a2 2 0 0 0-2 2v8a2 2 0 0 0 2 2h2.13A2 2 0 0 1 6 39.42a26.869 26.869 0 0 0 2.4 5.69 2 2 0 0 1-.35 2.35L6.54 49a2 2 0 0 0 0 2.83l5.66 5.66a1.998 1.998 0 0 0 2.83 0L16.54 56a2 2 0 0 1 2.35-.35c1.8.999 3.71 1.787 5.69 2.35A2 2 0 0 1 26 59.87V62a2 2 0 0 0 2 2h8a2 2 0 0 0 2-2v-2.13A2 2 0 0 1 39.42 58a26.866 26.866 0 0 0 5.69-2.36 2 2 0 0 1 2.35.35L49 57.46a1.998 1.998 0 0 0 2.83 0l5.66-5.66a1.998 1.998 0 0 0 0-2.83L56 47.46a2 2 0 0 1-.35-2.35c.999-1.8 1.787-3.71 2.35-5.69A2 2 0 0 1 59.87 38H62a2 2 0 0 0 2-2Z" fill="#00BEBD"/><path d="M32 51c10.493 0 19-8.507 19-19s-8.507-19-19-19-19 8.507-19 19 8.507 19 19 19Z" fill="#EA9706"/><path d="M32 46c7.732 0 14-6.268 14-14s-6.268-14-14-14-14 6.268-14 14 6.268 14 14 14Z" fill="#FFAC00"/><path d="M32 52a20.001 20.001 0 0 1-18.15-28.42 1.003 1.003 0 0 1 1.82.84A18 18 0 1 0 18 20.63a1 1 0 0 1-1.55-1.26A20 20 0 1 1 32 52Z" fill="#F3F3F3"/><path d="M21 21h-4a1 1 0 0 1-1-1v-4a1 1 0 0 1 2 0v3h3a1 1 0 0 1 0 2ZM30 38h-6a1 1 0 0 1-1-1 4.22 4.22 0 0 1 2.34-3.79l2.5-1.21a2.09 2.09 0 0 0-.93-4A1.92 1.92 0 0 0 25 29.91a1 1 0 0 1-1 1 1 1 0 0 1-1-.91 3.93 3.93 0 0 1 3.91-4 4.09 4.09 0 0 1 1.83 7.75c-2.81 1.4-3.1 1.44-3.51 2.25H30a1 1 0 0 1 0 2ZM40 35h-6a1 1 0 0 1-.92-1.39l3-7a1.001 1.001 0 0 1 1.934.392 1 1 0 0 1-.094.388L35.52 33H40a1 1 0 0 1 0 2Z" fill="#F3F3F3"/><path d="M40 38a1 1 0 0 1-1-1v-7a1 1 0 0 1 2 0v7a1 1 0 0 1-1 1Z" fill="#F3F3F3"/></svg>