<svg width="64" height="64" fill="none" xmlns="http://www.w3.org/2000/svg"><g clip-path="url(#a)"><path d="M40 37v20H4V37a4 4 0 0 1 2.82-3.82L17 30h10l10.18 3.13A4 4 0 0 1 40 37Z" fill="#00BEBD"/><path d="M12 13H9v6h3v-6Z" fill="#00AAA8"/><path d="M30 14H11a4 4 0 0 1-4-4V3h21a3 3 0 0 1 3 3 4 4 0 0 1 4 4v7h-3v-1a2 2 0 0 0-2-2Z" fill="#00BEBD"/><path d="M34 24h-3v-8h3a2 2 0 0 1 2 2v4a2 2 0 0 1-2 2ZM10 16h3v9h-3a2 2 0 0 1-2-2v-5a2 2 0 0 1 2-2Z" fill="#50D9D7"/><path d="M22 36a5 5 0 0 1-5-5v-3h10v3a5 5 0 0 1-5 5Z" fill="#EA9706"/><path d="M22 32a10 10 0 0 1-10-10v-8h18a2 2 0 0 1 2 2v6a10 10 0 0 1-10 10Z" fill="#FFAC00"/><path d="M32 29h-5a1 1 0 0 1 0-2h5a1 1 0 0 0 1-1v-3a1 1 0 0 1 2 0v3a3 3 0 0 1-3 3Z" fill="#F3F3F3"/><path d="M19.55 28.89a1 1 0 0 1 .9-1.78 3.52 3.52 0 0 0 3.1 0 1 1 0 0 1 .9 1.78 5.49 5.49 0 0 1-4.9 0Z" fill="#EA9706"/><path d="M1 60h42a1 1 0 0 1 1 1v1a2 2 0 0 1-2 2H2a2 2 0 0 1-2-2v-1a1 1 0 0 1 1-1Z" fill="#D9D9D9"/><path d="M43 36v24H1V36a2 2 0 0 1 2-2h38a2 2 0 0 1 2 2Z" fill="#F3F3F3"/><path d="M24.67 51a4 4 0 1 1 0-6 3 3 0 0 0 0 6Z" fill="#93E6E5"/><path d="M49.37.1a13 13 0 0 0-10 18.76 2 2 0 0 1 .25 1.14l-.46 3.69a1 1 0 0 0 1.12 1.12c3.93-.49 4.1-.63 4.86-.24A13.001 13.001 0 0 0 63.482 9.19 13 13 0 0 0 49.37.1Z" fill="#FFAC00"/><path d="M47 10v2h2v10h4V10h-6ZM51 8a2 2 0 1 0 0-4 2 2 0 0 0 0 4Z" fill="#fff"/><path d="M43 37v22a11 11 0 1 1 0-22Z" fill="#D9D9D9"/><path d="M43 57a9 9 0 1 0 0-18 9 9 0 0 0 0 18Z" fill="#fff"/><path d="M43 55a7 7 0 1 0 0-14 7 7 0 0 0 0 14Z" fill="#00BEBD"/><path d="M39 49a1 1 0 1 0 0-2 1 1 0 0 0 0 2ZM43 49a1 1 0 1 0 0-2 1 1 0 0 0 0 2ZM47 49a1 1 0 1 0 0-2 1 1 0 0 0 0 2Z" fill="#F3F3F3"/></g><defs><clipPath id="a"><path fill="#fff" d="M0 0h64v64H0z"/></clipPath></defs></svg>